<?xml version="1.0" standalone="no"?>
<!DOCTYPE svg PUBLIC "-//W3C//DTD SVG 20010904//EN" "http://www.w3.org/TR/2001/REC-SVG-20010904/DTD/svg10.dtd">
<svg version="1.0" xmlns="http://www.w3.org/2000/svg" width="138" height="20"  preserveAspectRatio="xMidYMid meet">
    <g transform="translate(0.000000,1427.000000) scale(0.100000,-0.100000)" fill="#000000" stroke="none">
<path d="M8930 14203 c-765 -253 -1576 -430 -2235 -488 -201 -18 -1136 -21
-1330 -5 -690 58 -1494 226 -2286 478 l-217 68 -1288 -1209 c-709 -664 -1295
-1214 -1302 -1221 -16 -16 -61 -231 -117 -561 -240 -1423 -197 -2808 129
-4120 530 -2134 1812 -4107 3745 -5764 518 -444 1188 -930 1738 -1260 266
-160 236 -159 494 -5 350 210 785 507 1124 767 77 59 173 133 214 164 40 31
158 126 261 212 1796 1494 3064 3282 3694 5210 200 611 325 1171 413 1856 l27
210 4 890 c2 760 1 914 -13 1055 -36 372 -90 739 -162 1109 l-36 183 -1281
1201 c-705 660 -1303 1221 -1331 1247 l-50 47 -195 -64z m-2224 -1860 c-3
-159 -9 -320 -12 -359 l-6 -71 326 -133 c179 -73 326 -136 326 -140 0 -4 -157
-47 -348 -95 l-349 -87 -23 -357 c-12 -196 -26 -359 -30 -364 -4 -5 -382 555
-404 600 -1 0 -147 -32 -326 -73 -179 -40 -329 -72 -333 -71 -4 1 45 70 109
152 64 83 159 205 210 272 l94 121 -181 297 c-99 164 -178 299 -176 301 2 2
149 -50 326 -116 177 -66 324 -120 326 -120 2 0 108 119 235 265 127 146 234
265 237 265 3 0 3 -129 -1 -287z m-2646 61 c248 -32 472 -100 705 -214 134
-65 336 -184 285 -167 -8 3 -56 21 -107 41 -374 146 -820 153 -1204 20 -546
-189 -964 -628 -1122 -1180 -53 -183 -62 -254 -62 -489 0 -190 3 -235 23 -333
112 -551 458 -1008 947 -1250 131 -65 218 -96 356 -131 172 -44 283 -54 497
-48 214 6 316 24 507 88 603 204 1058 731 1169 1354 l14 80 1 -108 c4 -481
-188 -1009 -516 -1417 -371 -463 -940 -773 -1538 -840 -134 -15 -417 -12 -552
5 -820 106 -1529 649 -1842 1411 -350 849 -171 1811 460 2478 507 535 1241
795 1979 700z m7440 -1141 c128 -687 180 -1236 180 -1913 0 -677 -55 -1225
-185 -1860 -449 -2181 -1742 -4222 -3722 -5875 -539 -450 -1165 -893 -1663
-1176 l-91 -52 -52 28 c-168 91 -527 319 -790 502 -653 453 -1189 903 -1768
1482 -607 608 -1026 1115 -1459 1766 -188 281 -465 745 -458 766 3 8 9967
6446 9979 6448 4 1 17 -52 29 -116z"/>
</g>
</svg>
